# xmcd
#
# Track frame offsets:
#	150
#	15197
#	26025
#	36217
#	47180
#	69720
#	83062
#	96285
#	108237
#	125090
#
# Disc length: 1837 seconds
#
# Revision: 3
# Processed by: cddbd v1.5.2PL0 Copyright (c) Steve Scherf et al.
# Submitted via: audiograbber 1.83.01
#
DISCID=7e072b0a
DTITLE=Various Artist - That Was Country - Late 60's
DYEAR=1991
DGENRE=Oldies
TTITLE0=Marty Robbins - I Walk Alone
TTITLE1=Johnny Cash - Daddy Sang Bass
TTITLE2=David Houston - Have a Little Faith
TTITLE3=George Jones - Walk Through This World With Me
TTITLE4=Ray Price - Danny Boy
TTITLE5=Tammy Wynette - D-I-V-O-R-C-E
TTITLE6=Freddy Weller - Games People Play
TTITLE7=Charlie Walker - Don't Squeeze My Sharmon
TTITLE8=John Wesley Ryles - Kay
TTITLE9=Tommy Cash - Six White Horses
EXTD=
EXTT0=
EXTT1=
EXTT2=
EXTT3=This is the version recorded for Epic/Columbia, not the original version.
EXTT4=
EXTT5=
EXTT6=
EXTT7=
EXTT8=
EXTT9=
PLAYORDER=
